<svg xmlns="http://www.w3.org/2000/svg" xmlns:xlink="http://www.w3.org/1999/xlink" x="0px" y="0px" width="48px" height="48px" viewBox="0 0 48 48"><g >
<path d="M22.8,11l-5.7,10h13.7l-5.7-10l3.7-6.5C29.1,4,29,3.4,28.5,3.1C28,2.9,27.4,3,27.1,3.5L24,9&#10;&#9;l-3.1-5.5C20.6,3,20,2.9,19.5,3.1S18.9,4,19.1,4.5L22.8,11z"/>
<path d="M44.9,45.5L32,23H16L3.1,45.5c-0.2,0.3-0.2,0.7,0,1C3.3,46.8,3.6,47,4,47h12l7.1-12.5c0.4-0.6,1.4-0.6,1.7,0&#10;&#9;L32,47h12c0.4,0,0.7-0.2,0.9-0.5C45,46.2,45,45.8,44.9,45.5z"/>
</g></svg>
