<svg xmlns="http://www.w3.org/2000/svg" xmlns:xlink="http://www.w3.org/1999/xlink" x="0px" y="0px" width="48px" height="48px" viewBox="0 0 48 48"><g >
<path d="M14,7H2C1.447,7,1,7.447,1,8v18c0,0.553,0.447,1,1,1h12c0.553,0,1-0.447,1-1V8C15,7.447,14.553,7,14,7z"/>
<path d="M46,7H34c-0.553,0-1,0.447-1,1v18c0,0.553,0.447,1,1,1h12c0.553,0,1-0.447,1-1V8C47,7.447,46.553,7,46,7z"/>
<path d="M40,47H8c-0.553,0-1-0.447-1-1V31h2v14h30V31h2v15C41,46.553,40.553,47,40,47z"/>
<path d="M13,5V2c0-0.553-0.447-1-1-1H4C3.447,1,3,1.447,3,2v3H13z"/>
<path d="M45,5V2c0-0.553-0.447-1-1-1h-8c-0.553,0-1,0.447-1,1v3H45z"/>
</g></svg>
