<svg xmlns="http://www.w3.org/2000/svg" xmlns:xlink="http://www.w3.org/1999/xlink" x="0px" y="0px" width="48px" height="48px" viewBox="0 0 48 48"><g >
<path d="M41,1H7C5.895,1,5,1.895,5,3v42c0,1.105,0.895,2,2,2h34c1.105,0,2-0.895,2-2V3C43,1.895,42.105,1,41,1z&#10;&#9; M16,37h-3c-0.553,0-1-0.447-1-1s0.447-1,1-1h3c0.553,0,1,0.447,1,1S16.553,37,16,37z M16,29h-3c-0.553,0-1-0.447-1-1s0.447-1,1-1h3&#10;&#9;c0.553,0,1,0.447,1,1S16.553,29,16,29z M16,21h-3c-0.553,0-1-0.447-1-1s0.447-1,1-1h3c0.553,0,1,0.447,1,1S16.553,21,16,21z M16,13&#10;&#9;h-3c-0.553,0-1-0.447-1-1s0.447-1,1-1h3c0.553,0,1,0.447,1,1S16.553,13,16,13z M29,37h-5c-0.553,0-1-0.447-1-1s0.447-1,1-1h5&#10;&#9;c0.553,0,1,0.447,1,1S29.553,37,29,37z M35,29H24c-0.553,0-1-0.447-1-1s0.447-1,1-1h11c0.553,0,1,0.447,1,1S35.553,29,35,29z M23,20&#10;&#9;c0-0.553,0.447-1,1-1h7c0.553,0,1,0.447,1,1s-0.447,1-1,1h-7C23.447,21,23,20.553,23,20z M35,13H24c-0.553,0-1-0.447-1-1&#10;&#9;s0.447-1,1-1h11c0.553,0,1,0.447,1,1S35.553,13,35,13z"/>
</g></svg>
