<svg xmlns="http://www.w3.org/2000/svg" xmlns:xlink="http://www.w3.org/1999/xlink" x="0px" y="0px" width="48px" height="48px" viewBox="0 0 48 48"><g >
<path d="M24,0C10.8,0,0,10.8,0,24s10.8,24,24,24s24-10.8,24-24S37.3,0,24,0z M35,34.7c-0.5,0.7-1.3,1-2,0.5&#10;&#9;c-5.6-3.5-12.7-4.2-21.1-2.3c-0.8,0.2-1.6-0.4-1.8-1.1c-0.2-0.8,0.4-1.6,1.1-1.8c9.1-2,17-1.2,23.3,2.6C35.3,33,35.4,34,35,34.7z&#10;&#9; M37.9,28.1c-0.6,0.8-1.7,1.2-2.5,0.6c-6.5-4-16.3-5.2-23.9-2.8c-1,0.2-2-0.2-2.3-1.2c-0.2-1,0.2-2,1.2-2.3c8.8-2.6,19.6-1.3,27,3.2&#10;&#9;C38.2,26,38.5,27.2,37.9,28.1z M38.2,21.4c-7.7-4.6-20.5-5-27.8-2.8c-1.2,0.4-2.4-0.4-2.8-1.4C7.2,16,7.9,14.8,9,14.4&#10;&#9;c8.5-2.5,22.6-2,31.4,3.2c1.1,0.6,1.4,2,0.8,3.1C40.7,21.6,39.2,22,38.2,21.4z"/>
</g></svg>
