<?xml version="1.0" encoding="utf-8"?>
<!-- Generator: Adobe Illustrator 21.0.0, SVG Export Plug-In . SVG Version: 6.00 Build 0)  -->
<svg version="1.1" id="Ebene_1" xmlns="http://www.w3.org/2000/svg" xmlns:xlink="http://www.w3.org/1999/xlink" x="0px" y="0px"
	 viewBox="0 0 48.6 51.2" xml:space="preserve">
<g>
	<path d="M13,19.5c1.8,0,3.6,0,5.4,0c1.8,0,3.6,0,5.4,0c0.1,0,0.1,0,0.2,0c2,0,3.8,0.7,5.2,2.1c1.4,1.4,2.2,3.2,2.2,5.2
		c0,1,0,2.1,0,3.1c0,1,0,2.1,0,3.1c0,0.5-0.1,0.8-0.2,0.9c-0.1,0.1-0.5,0.2-1,0.2c-1.9,0-3.8,0-5.7,0c-1.9,0-3.8,0-5.7,0
		c-1.9,0-3.8,0-5.7,0c-1.9,0-3.8,0-5.7,0c-2,0-3.8-0.7-5.2-2.1C0.8,30.6,0,28.9,0,26.9c0-2.1,0-4.1,0-6.2c0-0.5,0.1-0.8,0.2-0.9
		c0.1-0.1,0.5-0.2,0.9-0.2H13z M32.6,8.4c0,2.3-0.9,4.3-2.5,5.9c-1.6,1.6-3.6,2.4-6,2.4c-0.1,0-0.1,0-0.2,0s-0.1,0-0.1,0
		c-2.3-0.1-4.2-1-5.8-2.6c-1.6-1.7-2.4-3.6-2.4-5.9V8.1c0.1-2.3,1-4.2,2.6-5.8C19.9,0.8,21.8,0,24.1,0c0,0,0.1,0,0.1,0s0.1,0,0.1,0
		c2.3,0.1,4.2,0.9,5.8,2.5C31.7,4.2,32.5,6.1,32.6,8.4z M16.6,43.8c0-1.1,0-2.1,0-3.1c0-1,0-2.1,0-3.1c0,0,0-0.1,0-0.1s0-0.1,0-0.1
		c0-0.2,0.1-0.4,0.2-0.6s0.4-0.2,0.5-0.2c0,0,0.1,0,0.1,0c0,0,0.1,0,0.1,0c4.3,0,8.6,0,12.9,0c0,0,0.1,0,0.1,0c0,0,0.1,0,0.1,0
		c0.2,0,0.4,0.1,0.6,0.2c0.1,0.1,0.2,0.3,0.2,0.6c0,0,0,0.1,0,0.1s0,0.1,0,0.1c0,1.2,0,2.3,0,3.5s0,2.4,0,3.5
		c-0.1,1.8-0.9,3.3-2.3,4.6s-3,2-4.8,2c-1.1,0-2.2,0-3.3,0c-1.1,0-2.2,0-3.3,0c-0.5,0-0.8-0.1-0.9-0.2c-0.1-0.1-0.2-0.4-0.2-0.8
		c0-1.1,0-2.2,0-3.2C16.6,45.9,16.6,44.8,16.6,43.8z M33.7,29.6L33.7,29.6c0-0.8,0-1.6,0.1-2.4s0.1-1.5,0.3-2.1
		c0.4-1.6,1.2-2.9,2.5-3.9c1.3-1,2.8-1.5,4.5-1.5c0,0,0.1,0,0.1,0c1.1,0,2.1,0,3.2,0c1.1,0,2.1,0,3.2,0c0.5,0,0.8,0.1,0.9,0.2
		c0.1,0.1,0.2,0.4,0.2,0.9c0,1,0,2.1,0,3.1c0,1,0,2,0,3.1c0,2.1-0.7,3.8-2.1,5.3s-3.2,2.2-5.2,2.2c0,0-0.1,0-0.1,0c0,0-0.1,0-0.1,0
		h-6c-0.5,0-0.9-0.1-1-0.2c-0.1-0.1-0.2-0.4-0.2-0.9c0-0.6,0-1.2,0-1.8c0-0.6,0-1.2,0-1.7H33.7z"/>
</g>
</svg>
