<?xml version="1.0" encoding="utf-8"?>
<!-- Generator: Adobe Illustrator 21.0.0, SVG Export Plug-In . SVG Version: 6.00 Build 0)  -->
<svg version="1.1" id="Ebene_1" xmlns="http://www.w3.org/2000/svg" xmlns:xlink="http://www.w3.org/1999/xlink" x="0px" y="0px"
	 viewBox="0 0 61.7 82.6" style="enable-background:new 0 0 61.7 82.6;" xml:space="preserve">
<style type="text/css">
	.st0{fill:#FFFFFF;}
</style>
<g>
	<path class="st0" d="M0,21.3h3.2v40.4H0V21.3z M9.4,26.7H6.9v39.9h3.2V54.2h2.4v-40H9.4V26.7L9.4,26.7z M43.8,23.1h-2.5v12.4h-1.7
		V5.3h-3.2v12.4h-2.5v12.5h-1.6V0h-3.2v12.4h-2.5v12.5h-2.4v12.4h-1.7V7.1h-3.2v12.5h-2.4V32h-2.5v40h3.2V59.5H20V47.1h1.6v30.3h3.3
		V64.9h2.4V52.4H29v30.3h3.3V70.2h2.4V57.7h2.4V45.3h1.7v30.3H42V63h2.5V50.6H47V10.7h-3.1v12.4H43.8z M51.2,28.4h-2.4v40H52V55.9
		h2.5V16h-3.3V28.4z M58.5,61.3h3.2v-40h-3.2V61.3z"/>
</g>
</svg>
