<svg xmlns="http://www.w3.org/2000/svg" xmlns:xlink="http://www.w3.org/1999/xlink" x="0px" y="0px" width="48px" height="48px" viewBox="0 0 48 48"><g >
<path d="M6,47c0.552,0,1-0.447,1-1V2c0-0.553-0.448-1-1-1S5,1.447,5,2v44C5,46.553,5.448,47,6,47z"/>
<path d="M41.408,1.193c0.304-0.222,0.707-0.255,1.044-0.085C42.788,1.278,43,1.623,43,2v44&#10;&#9;c0,0.377-0.212,0.722-0.548,0.892C42.31,46.964,42.154,47,42,47c-0.209,0-0.417-0.065-0.592-0.193l-30-22&#10;&#9;C11.151,24.618,11,24.318,11,24s0.151-0.618,0.408-0.807L41.408,1.193z"/>
</g></svg>
