<svg xmlns="http://www.w3.org/2000/svg" xmlns:xlink="http://www.w3.org/1999/xlink" x="0px" y="0px" width="48px" height="48px" viewBox="0 0 48 48"><g >
<path d="M7,2v25c0,0.552,0.448,1,1,1s1-0.448,1-1V2c0-0.552-0.448-1-1-1S7,1.448,7,2z"/>
<path d="M1,32v8c0,0.552,0.448,1,1,1h5v5c0,0.552,0.448,1,1,1s1-0.448,1-1v-5h5c0.552,0,1-0.448,1-1v-8&#10;&#9;c0-0.552-0.448-1-1-1H2C1.448,31,1,31.448,1,32z"/>
<path d="M23,46V21c0-0.552,0.448-1,1-1s1,0.448,1,1v25c0,0.552-0.448,1-1,1S23,46.552,23,46z"/>
<path d="M17,16V8c0-0.552,0.448-1,1-1h5V2c0-0.552,0.448-1,1-1s1,0.448,1,1v5h5c0.552,0,1,0.448,1,1v8&#10;&#9;c0,0.552-0.448,1-1,1H18C17.448,17,17,16.552,17,16z"/>
<path d="M39,2v25c0,0.552,0.448,1,1,1s1-0.448,1-1V2c0-0.552-0.448-1-1-1S39,1.448,39,2z"/>
<path d="M33,32v8c0,0.552,0.448,1,1,1h5v5c0,0.552,0.448,1,1,1s1-0.448,1-1v-5h5c0.552,0,1-0.448,1-1v-8&#10;&#9;c0-0.552-0.448-1-1-1H34C33.448,31,33,31.448,33,32z"/>
</g></svg>
