<svg xmlns="http://www.w3.org/2000/svg" xmlns:xlink="http://www.w3.org/1999/xlink" x="0px" y="0px" width="48px" height="48px" viewBox="0 0 48 48"><g >
<path d="M2,15c4.204,0,7.391,0.998,10.07,2.935c1.131,0.817,2.046,1.657,3.095,2.847&#10;&#9;c0.439-0.584,0.848-1.118,1.24-1.621c-1.038-1.147-1.987-1.997-3.163-2.847C10.216,14.127,6.618,13,2,13c-0.552,0-1,0.448-1,1&#10;&#9;C1,14.552,1.448,15,2,15z"/>
<path d="M46.614,33.211l-9-7c-0.303-0.235-0.71-0.277-1.054-0.109C36.218,26.27,36,26.618,36,27v6&#10;&#9;c-4.204,0-7.391-0.998-10.07-2.935c-1.131-0.818-2.046-1.657-3.095-2.847c-0.439,0.584-0.848,1.118-1.24,1.621&#10;&#9;c1.038,1.147,1.987,1.997,3.163,2.847C27.784,33.873,31.382,35,36,35v6c0,0.382,0.218,0.73,0.561,0.898C36.7,41.967,36.851,42,37,42&#10;&#9;c0.218,0,0.435-0.071,0.614-0.211l9-7C46.857,34.6,47,34.309,47,34S46.857,33.4,46.614,33.211z"/>
<path d="M46.614,13.211l-9-7c-0.303-0.235-0.71-0.277-1.054-0.109C36.218,6.27,36,6.618,36,7v6&#10;&#9;c-4.618,0-8.216,1.127-11.242,3.315c-2.27,1.641-3.686,3.256-6.558,7.085c-2.753,3.67-4.077,5.181-6.13,6.665&#10;&#9;C9.391,32.002,6.204,33,2,33c-0.552,0-1,0.448-1,1c0,0.552,0.448,1,1,1c4.618,0,8.216-1.127,11.242-3.315&#10;&#9;c2.27-1.641,3.686-3.256,6.558-7.085c2.753-3.67,4.077-5.181,6.13-6.665C28.609,15.998,31.796,15,36,15v6&#10;&#9;c0,0.382,0.218,0.73,0.561,0.898C36.7,21.967,36.851,22,37,22c0.218,0,0.435-0.071,0.614-0.211l9-7C46.857,14.6,47,14.309,47,14&#10;&#9;C47,13.691,46.857,13.4,46.614,13.211z"/>
</g></svg>
