<svg xmlns="http://www.w3.org/2000/svg" xmlns:xlink="http://www.w3.org/1999/xlink" x="0px" y="0px" width="48px" height="48px" viewBox="0 0 48 48"><g >
<path d="M28.4,3.1c-0.3-0.2-0.7-0.1-1,0.1L11.7,15H2c-0.6,0-1,0.4-1,1v16c0,0.6,0.4,1,1,1h9.7l15.7,11.8&#10;&#9;c0.2,0.1,0.4,0.2,0.6,0.2c0.2,0,0.3,0,0.4-0.1c0.3-0.2,0.6-0.5,0.6-0.9V4C29,3.6,28.8,3.3,28.4,3.1z"/>
<path d="M34.4,16.2c-0.4,0.4-0.4,1,0,1.4c3.5,3.5,3.5,9.2,0,12.7c-0.4,0.4-0.4,1,0,1.4&#10;&#9;c0.2,0.2,0.5,0.3,0.7,0.3s0.5-0.1,0.7-0.3c4.3-4.3,4.3-11.3,0-15.6C35.4,15.8,34.8,15.8,34.4,16.2z"/>
<path d="M40,10.6c-0.4,0.4-0.4,1,0,1.4c6.6,6.6,6.6,17.4,0,24c-0.4,0.4-0.4,1,0,1.4&#10;&#9;c0.2,0.2,0.5,0.3,0.7,0.3s0.5-0.1,0.7-0.3c7.4-7.4,7.4-19.5,0-26.9C41,10.2,40.4,10.2,40,10.6z"/>
</g></svg>
