<svg xmlns="http://www.w3.org/2000/svg" xmlns:xlink="http://www.w3.org/1999/xlink" x="0px" y="0px" width="48px" height="48px" viewBox="0 0 48 48"><g >
<path d="M34.581,23.187l-28-20C6.276,2.968,5.875,2.942,5.542,3.11C5.209,3.282,5,3.625,5,4v40&#10;&#9;c0,0.375,0.209,0.718,0.542,0.89C5.687,44.964,5.844,45,6,45c0.205,0,0.408-0.062,0.581-0.187l28-20C34.844,24.626,35,24.323,35,24&#10;&#9;S34.844,23.374,34.581,23.187z"/>
<path d="M42,1c-0.552,0-1,0.447-1,1v44c0,0.553,0.448,1,1,1s1-0.447,1-1V2C43,1.447,42.552,1,42,1z"/>
</g></svg>
