<svg xmlns="http://www.w3.org/2000/svg" xmlns:xlink="http://www.w3.org/1999/xlink" x="0px" y="0px" width="48px" height="48px" viewBox="0 0 48 48"><g >
<path d="M34.614,9.211l-9-7c-0.303-0.235-0.71-0.276-1.054-0.109C24.218,2.27,24,2.618,24,3v6H2&#10;&#9;c-0.553,0-1,0.447-1,1v28c0,0.553,0.447,1,1,1h6c0.553,0,1-0.447,1-1s-0.447-1-1-1H3V11h21v6c0,0.382,0.218,0.73,0.561,0.898&#10;&#9;c0.338,0.165,0.748,0.128,1.054-0.109l9-7C34.857,10.6,35,10.309,35,10S34.857,9.4,34.614,9.211z"/>
<path d="M46,9h-6c-0.553,0-1,0.447-1,1s0.447,1,1,1h5v26H24v-6c0-0.382-0.218-0.73-0.561-0.898&#10;&#9;c-0.338-0.165-0.748-0.128-1.054,0.109l-9,7C13.143,37.401,13,37.692,13,38s0.143,0.6,0.386,0.789l9,7&#10;&#9;c0.303,0.235,0.71,0.276,1.054,0.109C23.782,45.731,24,45.382,24,45v-6h22c0.553,0,1-0.447,1-1V10C47,9.447,46.553,9,46,9z"/>
</g></svg>
