<svg xmlns="http://www.w3.org/2000/svg" xmlns:xlink="http://www.w3.org/1999/xlink" x="0px" y="0px" width="48px" height="48px" viewBox="0 0 48 48"><g >
<path d="M43,18H31c-1.654,0-3,1.346-3,3v24c0,1.654,1.346,3,3,3h12c1.654,0,3-1.346,3-3V21&#10;&#9;C46,19.346,44.654,18,43,18z M37,46c-1.103,0-2-0.897-2-2s0.897-2,2-2s2,0.897,2,2S38.103,46,37,46z M43,39c0,0.553-0.448,1-1,1H32&#10;&#9;c-0.552,0-1-0.447-1-1V22c0-0.553,0.448-1,1-1h10c0.552,0,1,0.447,1,1V39z"/>
<path d="M26,32H6V5c0-0.552,0.448-1,1-1h26c0.552,0,1,0.448,1,1v11h4V4c0-2.206-1.794-4-4-4H6C3.794,0,2,1.794,2,4&#10;&#9;v34c0,2.206,1.794,4,4,4h20V32z M20,40c-1.657,0-3-1.343-3-3s1.343-3,3-3s3,1.343,3,3S21.657,40,20,40z"/>
</g></svg>
