<?xml version="1.0" encoding="utf-8"?>
<!-- Generator: Adobe Illustrator 21.0.0, SVG Export Plug-In . SVG Version: 6.00 Build 0)  -->
<svg version="1.1" id="Ebene_1" xmlns="http://www.w3.org/2000/svg" xmlns:xlink="http://www.w3.org/1999/xlink" x="0px" y="0px"
	 viewBox="0 0 63.8 62.4" xml:space="preserve">
<g>
	<path d="M63.8,20.4v42H0v-51h19.1l3.5,9h11.5v4.9H19.3l-3.4-9.1H4.8v41.4h54.3V25.3H45.6v-4.9H63.8z M28.3,47.4
		c1.5,1.5,3.3,2.3,5.4,2.3c2.2,0,4-0.8,5.5-2.3c1.5-1.5,2.3-3.3,2.3-5.5c0-6.7,0-12,0-15.9c0-4,0-9.3,0-15.9l5,3.4l0.1-3.5L38.2,0
		v35.7c-0.5-0.5-1.1-1-1.7-1.3c-0.7-0.3-1.4-0.5-2.2-0.5c-0.1,0-0.1,0-0.2,0c-0.1,0-0.2,0-0.3,0c-2.1,0.1-3.9,0.9-5.4,2.4
		c-1.5,1.5-2.3,3.3-2.3,5.4v0.1C26,44,26.8,45.9,28.3,47.4z"/>
</g>
</svg>
